<svg xmlns="http://www.w3.org/2000/svg" version="1.1" xmlns:xlink="http://www.w3.org/1999/xlink" xmlns:svgjs="http://svgjs.dev/svgjs" width="1500" height="1500" viewBox="0 0 1500 1500"><rect width="1500" height="1500" fill="#000000"></rect><g transform="matrix(0.6666666666666666,0,0,0.6666666666666666,249.39393939393938,438.5856950067477)"><svg viewBox="0 0 396 247" data-background-color="#ffffff" preserveAspectRatio="xMidYMid meet" height="935" width="1500" xmlns="http://www.w3.org/2000/svg" xmlns:xlink="http://www.w3.org/1999/xlink"><g id="tight-bounds" transform="matrix(1,0,0,1,0.2400000000000091,-0.09999999999999432)"><svg viewBox="0 0 395.52 247.2" height="247.2" width="395.52"><g><svg></svg></g><g><svg viewBox="0 0 395.52 247.2" height="247.2" width="395.52"><g transform="matrix(1,0,0,1,117.557511023818,96.05354999999999)"><svg viewBox="0 0 160.404977952364 55.09290000000001" height="55.09290000000001" width="160.404977952364"><g><svg viewBox="0 0 160.404977952364 55.09290000000001" height="55.09290000000001" width="160.404977952364"><g><svg viewBox="0 0 160.404977952364 55.09290000000001" height="55.09290000000001" width="160.404977952364"><g id="textblocktransform"><svg viewBox="0 0 160.404977952364 55.09290000000001" height="55.09290000000001" width="160.404977952364" id="textblock"><g><svg viewBox="0 0 160.404977952364 55.09290000000001" height="55.09290000000001" width="160.404977952364"><g><svg><g></g><g></g></svg></g><g><svg><g><svg></svg></g><g></g></svg></g><g id="text-0"><svg viewBox="0 0 160.404977952364 55.09290000000001" height="55.09290000000001" width="160.404977952364"><g transform="matrix(1,0,0,1,0,0)"><svg width="90.36530000000002" viewBox="2.15 -33.45 55.85 34.050000000000004" height="55.09290000000001" data-palette-color="#ff908b"><path d="M13.55 0.6L13.55 0.6Q10.1 0.6 7.2-0.75 4.3-2.1 2.15-4.3L2.15-4.3 4.4-6.85Q6.2-4.95 8.58-3.8 10.95-2.65 13.6-2.65L13.6-2.65Q17-2.65 18.9-4.23 20.8-5.8 20.8-8.35L20.8-8.35Q20.8-10.1 20.05-11.18 19.3-12.25 18.05-12.98 16.8-13.7 15.2-14.4L15.2-14.4 10.45-16.5Q8.95-17.15 7.4-18.2 5.85-19.25 4.83-20.85 3.8-22.45 3.8-24.9L3.8-24.9Q3.8-27.4 5.13-29.33 6.45-31.25 8.72-32.35 11-33.45 13.9-33.45L13.9-33.45Q16.85-33.45 19.33-32.3 21.8-31.15 23.45-29.4L23.45-29.4 21.45-27.05Q20-28.5 18.13-29.35 16.25-30.2 13.9-30.2L13.9-30.2Q11.05-30.2 9.28-28.83 7.5-27.45 7.5-25.1L7.5-25.1Q7.5-23.45 8.35-22.4 9.2-21.35 10.48-20.68 11.75-20 13-19.45L13-19.45 17.75-17.35Q19.65-16.55 21.18-15.45 22.7-14.35 23.63-12.7 24.55-11.05 24.55-8.6L24.55-8.6Q24.55-6.05 23.23-3.95 21.9-1.85 19.43-0.63 16.95 0.6 13.55 0.6ZM34.45 0L31.1 0 31.1-32.85 35.65-32.85 42.1-14.85Q42.7-13.15 43.3-11.4 43.9-9.65 44.5-7.9L44.5-7.9 44.7-7.9Q45.3-9.65 45.87-11.4 46.45-13.15 47.05-14.85L47.05-14.85 53.4-32.85 58-32.85 58 0 54.55 0 54.55-19Q54.55-20.4 54.62-22.05 54.7-23.7 54.8-25.38 54.9-27.05 55-28.5L55-28.5 54.8-28.5 52.2-21.05 45.8-3.4 43.2-3.4 36.75-21.05 34.15-28.5 33.95-28.5Q34.05-27.05 34.17-25.38 34.3-23.7 34.37-22.05 34.45-20.4 34.45-19L34.45-19 34.45 0Z" opacity="1" transform="matrix(1,0,0,1,0,0)" fill="#ffffff" class="wordmark-text-0" data-fill-palette-color="primary"></path></svg></g><g><svg xmlns="http://www.w3.org/2000/svg" xmlns:xlink="http://www.w3.org/1999/xlink" version="1.1" x="103.37240000000003" y="0" viewBox="3.057469292899283 5.219999999999995 93.97612807667778 90.78" enable-background="new 0 0 100 100" xml:space="preserve" height="55.09290000000001" width="57.03257795236398" class="icon-cg-0" data-fill-palette-color="accent" id="cg-0"><path d="M3.088 96c0 0-0.945-4.018 7.68-8.625 0 0 7.958-4.091 18.473-8.58l0.646-8.067 7.465-0.602 0.827-7.68c0 0-3.899-2.244-4.372-10.043 0 0-2.126-2.718-2.245-9.215 0 0 0.119-2.126 1.537-1.299l0.236-14.649c0 0-0.827-12.997 26.583-14.533 0 0-3.545 2.363-2.127 3.072 0 0 11.341 7.562 9.451 13.351v12.76c0 0 2.954-1.299 1.301 5.553 0 0-0.475 5.435-2.246 5.435 0 0-0.827 6.972-3.543 9.099l-0.237 8.27 7.062 0.806 1.149 6.929c0 0 18.607 9.042 21.797 10.813 0 0 4.845 3.899 4.49 7.09L3.088 96z" fill="#ffffff" data-fill-palette-color="accent"></path><path d="M21.511 33.919c0 0 45.208 1.179 60.146-3.539 0 0 3.144-8.648-14.151-6.29 0 0 1.965-14.939-6.685-18.87 0 0-7.468 6.683-21.62 0.393 0 0-10.768 1.485-7.766 18.527 0.087 0.494 0.186 1 0.296 1.521C31.732 25.664 20.332 24.091 21.511 33.919z" fill="#ffffff" data-fill-palette-color="accent"></path></svg></g></svg></g></svg></g></svg></g></svg></g><g></g></svg></g></svg></g><g><path d="M128.565 83.047A80.202 80.202 0 0 1 266.955 83.047L261.987 83.047A75.234 75.234 0 0 0 133.533 83.047L128.565 83.047M128.565 164.153A80.202 80.202 0 0 0 266.955 164.153L261.987 164.153A75.234 75.234 0 0 1 133.533 164.153L128.565 164.153" fill="#ffffff" stroke="transparent" data-fill-palette-color="tertiary"></path></g></svg></g><defs></defs></svg><rect width="395.52" height="247.2" fill="none" stroke="none" visibility="hidden"></rect></g></svg></g></svg>